# xmcd
# 
# Track frame offsets:
#     150
#     17537
#     36625
#     52825
#     75100
#     93462
#     115262
#     132137
#     151387
#     172275
# 
# Disc length: 2485
# 
# Revision: 2
# Processed by: cddbd v1.5.2PL0 Copyright (c) Steve Scherf et al.
# Submitted via: fre:ac v1.0.17
# 
DISCID=7509b30a
DTITLE=費玉清 - 一生的朋友
DYEAR=1993
DGENRE=°ê»y¬y¦æºq¦±
TTITLE0=一生的朋友
TTITLE1=愛得越久越寂莫
TTITLE2=來不及把夢還給你
TTITLE3=你我曾經走過紀元
TTITLE4=獨飲
TTITLE5=情可以堪
TTITLE6=酒歌
TTITLE7=冬之戀
TTITLE8=開一個心窗
TTITLE9=回憶飄落風中
EXTD=
EXTT0=
EXTT1=
EXTT2=
EXTT3=
EXTT4=
EXTT5=
EXTT6=
EXTT7=
EXTT8=
EXTT9=
PLAYORDER=
